name GIL04_free3.mot
datacolumns 153
datarows 4
range 0.35833323 0.38333324
endheader

                time	           pelvis_tx	           pelvis_ty	           pelvis_tz	         pelvis_tilt	         pelvis_list	     pelvis_rotation	       hip_flexion_r	     hip_adduction_r	      hip_rotation_r	        knee_angle_r	       ankle_angle_r	    subtalar_angle_r	         mtp_angle_r	       hip_flexion_l	     hip_adduction_l	      hip_rotation_l	        knee_angle_l	       ankle_angle_l	    subtalar_angle_l	         mtp_angle_l	    lumbar_extension	      lumbar_bending	     lumbar_rotation	     ground_force_vx	     ground_force_vy	     ground_force_vz	     ground_force_px	     ground_force_py	     ground_force_pz	     ground_force_vx	     ground_force_vy	     ground_force_vz	     ground_force_px	     ground_force_py	     ground_force_pz	     ground_torque_x	     ground_torque_y	     ground_torque_z	     ground_torque_x	     ground_torque_y	     ground_torque_z	    ground_marker_px	    ground_marker_py	    ground_marker_pz	    ground_marker_px	    ground_marker_py	    ground_marker_pz	    ground_marker_px	    ground_marker_py	    ground_marker_pz	    ground_marker_px	    ground_marker_py	    ground_marker_pz	    ground_marker_px	    ground_marker_py	    ground_marker_pz	    ground_marker_px	    ground_marker_py	    ground_marker_pz	    ground_marker_px	    ground_marker_py	    ground_marker_pz	    ground_marker_px	    ground_marker_py	    ground_marker_pz	    ground_marker_px	    ground_marker_py	    ground_marker_pz	    ground_marker_px	    ground_marker_py	    ground_marker_pz	    ground_marker_px	    ground_marker_py	    ground_marker_pz	    ground_marker_px	    ground_marker_py	    ground_marker_pz	    ground_marker_px	    ground_marker_py	    ground_marker_pz	    ground_marker_px	    ground_marker_py	    ground_marker_pz	    ground_marker_px	    ground_marker_py	    ground_marker_pz	    ground_marker_px	    ground_marker_py	    ground_marker_pz	    ground_marker_px	    ground_marker_py	    ground_marker_pz	    ground_marker_px	    ground_marker_py	    ground_marker_pz	    ground_marker_px	    ground_marker_py	    ground_marker_pz	    ground_marker_px	    ground_marker_py	    ground_marker_pz	    ground_marker_px	    ground_marker_py	    ground_marker_pz	    ground_marker_px	    ground_marker_py	    ground_marker_pz	    ground_marker_px	    ground_marker_py	    ground_marker_pz	    ground_marker_px	    ground_marker_py	    ground_marker_pz	    ground_marker_px	    ground_marker_py	    ground_marker_pz	    ground_marker_px	    ground_marker_py	    ground_marker_pz	    ground_marker_px	    ground_marker_py	    ground_marker_pz	    ground_marker_px	    ground_marker_py	    ground_marker_pz	    ground_marker_px	    ground_marker_py	    ground_marker_pz	    ground_marker_px	    ground_marker_py	    ground_marker_pz	    ground_marker_px	    ground_marker_py	    ground_marker_pz	    ground_marker_px	    ground_marker_py	    ground_marker_pz	    ground_marker_px	    ground_marker_py	    ground_marker_pz	    ground_marker_px	    ground_marker_py	    ground_marker_pz	    ground_marker_px	    ground_marker_py	    ground_marker_pz	    ground_marker_px	    ground_marker_py	    ground_marker_pz	    ground_marker_px	    ground_marker_py	    ground_marker_pz	
          0.35833323	          1.41883826	          0.75778741	         -0.20599319	         -1.91411018	         -0.27672815	          2.92986274	         31.19976044	         -1.11820996	         -0.45244616	        -45.12720490	          2.75968671	          0.00000000	          0.00000000	         -2.53428936	          6.58770275	         -3.03768659	         -6.45291185	          7.20663071	          0.00000000	          0.00000000	        -13.49641609	         -0.86374593	         -0.18381682	          0.00000000	          0.00000000	          0.00000000	          1.80940771	          0.00000000	         -0.17738148	         -2.21186331	        237.21511438	          1.43497520	          1.35292969	          0.00000000	         -0.22872614	          0.00000000	          0.00000000	          0.00000000	          0.00000000	         -0.97482214	          0.00000000	          1.36128187	          0.68718970	         -0.20372346	          1.35644972	          0.69374585	         -0.14031173	          1.35006106	          0.69470322	         -0.26597467	          1.51755655	          0.40650827	         -0.14425506	          1.32758677	          0.38285869	         -0.23106875	          1.43108380	          0.10093851	         -0.13704877	          1.26455688	          0.06204077	         -0.22396736	          1.41883826	          0.75778741	         -0.20599319	          1.42359483	          0.75707459	         -0.11243513	          1.41408169	          0.75850022	         -0.29955125	          1.27558827	          0.79486299	         -0.17376082	          1.26945436	          0.79325664	         -0.22842519	          1.51929152	          0.40678844	         -0.09378564	          1.32198465	          0.37773067	         -0.28048858	          1.52629018	          0.40183699	         -0.19100893	          1.33252311	          0.38472554	         -0.18184489	          1.42661786	          0.10298377	         -0.10391080	          1.25795460	          0.06258844	         -0.25782529	          1.43299389	          0.10815970	         -0.16319327	          1.25762582	          0.07140852	         -0.19553222	          1.30824184	          1.14440453	         -0.21296404	          1.39325476	          1.09967589	         -0.15203276	          1.38661826	          1.09867442	         -0.28053567	          1.38398635	          1.08711600	         -0.21840301	          1.40643334	          0.94531089	         -0.21776356	          1.48101628	          0.48214504	         -0.01268231	          1.46410763	          0.47657511	         -0.28911942	          1.48375487	          0.55452305	         -0.07860794	          1.40417790	          0.54111141	         -0.23251669	          1.53151608	          0.48672116	         -0.09369629	          1.38620210	          0.45631996	         -0.21790962	          1.44276536	          0.20239262	         -0.03175423	          1.36365247	          0.14289840	         -0.26677021	          1.47025263	          0.25198999	         -0.09142626	          1.31651974	          0.21129489	         -0.24732696	          1.51655650	          0.06412475	         -0.12913705	          1.35352397	          0.03633347	         -0.22320844	
          0.36666659	          1.42731857	          0.75706285	         -0.20607650	         -1.90741539	         -0.33565471	          3.10705209	         31.58402252	         -0.95916170	         -1.07913017	        -42.31674194	          3.05276012	          0.00000000	          0.00000000	         -3.66208267	          6.50991964	         -3.29114008	         -5.67491484	          7.27993584	          0.00000000	          0.00000000	        -13.62729645	         -0.79762661	         -0.56323099	          0.00000000	          0.00000000	          0.00000000	          1.81309351	          0.00000000	         -0.17687093	          0.06908218	        238.34953839	          1.21347568	          1.35400342	          0.00000000	         -0.22789781	          0.00000000	          0.00000000	          0.00000000	          0.00000000	         -1.08198145	          0.00000000	          1.36994100	          0.68639839	         -0.20354217	          1.36515021	          0.69303179	         -0.14017639	          1.35835302	          0.69395655	         -0.26581815	          1.52828121	          0.40666017	         -0.14558348	          1.32990110	          0.38286963	         -0.23087797	          1.45875561	          0.09561903	         -0.13776065	          1.26484263	          0.06250513	         -0.22336404	          1.42731857	          0.75706285	         -0.20607650	          1.43237972	          0.75637424	         -0.11252239	          1.42225730	          0.75775146	         -0.29963061	          1.28435349	          0.79405051	         -0.17313871	          1.27787983	          0.79254514	         -0.22786832	          1.52976549	          0.40655252	         -0.09510541	          1.32381880	          0.37788004	         -0.28025520	          1.53580606	          0.40168160	         -0.19246124	          1.33119333	          0.38636988	         -0.18106343	          1.45416057	          0.09747943	         -0.10462949	          1.25808990	          0.06308307	         -0.25719178	          1.46044838	          0.10272735	         -0.16394033	          1.25801134	          0.07180202	         -0.19485365	          1.31715190	          1.14373696	         -0.21285188	          1.40182424	          1.09880686	         -0.15160571	          1.39562130	          1.09769249	         -0.28022903	          1.39284968	          1.08623481	         -0.21812724	          1.41475356	          0.94433427	         -0.21718314	          1.49057972	          0.48104227	         -0.01369012	          1.46783102	          0.47418192	         -0.28996643	          1.49259007	          0.55357146	         -0.07921377	          1.40978420	          0.53967363	         -0.23259887	          1.54077518	          0.48612490	         -0.09476981	          1.38781750	          0.45486635	         -0.21743867	          1.46468210	          0.19784349	         -0.03259240	          1.36413848	          0.14284223	         -0.26657745	          1.48923504	          0.24865504	         -0.09231960	          1.31725991	          0.21146823	         -0.24695490	          1.54633057	          0.06408673	         -0.13009259	          1.35356033	          0.03637050	         -0.22317012	
          0.37499991	          1.43584776	          0.75613773	         -0.20616609	         -1.92100143	         -0.38400623	          3.30106425	         31.90155792	         -0.82889014	         -1.75018096	        -39.38764572	          3.26645231	          0.00000000	          0.00000000	         -4.73585844	          6.43177462	         -3.54341483	         -4.97815895	          7.38558578	          0.00000000	          0.00000000	        -13.78240013	         -0.29310611	         -1.25738311	          0.00000000	          0.00000000	          0.00000000	          1.81646497	          0.00000000	         -0.17630165	          2.40943423	        239.97404802	          1.62592633	          1.35514270	          0.00000000	         -0.22693159	          0.00000000	          0.00000000	          0.00000000	          0.00000000	         -1.15877869	          0.00000000	          1.37862659	          0.68542564	         -0.20337999	          1.37389326	          0.69212306	         -0.14004909	          1.36665797	          0.69304907	         -0.26566640	          1.53860617	          0.40638646	         -0.14686224	          1.33243692	          0.38281116	         -0.23074107	          1.48650384	          0.09082182	         -0.13859238	          1.26510751	          0.06298629	         -0.22281852	          1.43584776	          0.75613773	         -0.20616609	          1.44123602	          0.75544816	         -0.11261833	          1.43045962	          0.75682735	         -0.29971385	          1.29319024	          0.79309005	         -0.17249835	          1.28637612	          0.79168051	         -0.22728017	          1.53981018	          0.40587682	         -0.09637917	          1.32587206	          0.37798178	         -0.28007239	          1.54449964	          0.40071267	         -0.19364004	          1.33358431	          0.38642168	         -0.18120937	          1.48173511	          0.09247708	         -0.10547486	          1.25824726	          0.06359309	         -0.25662413	          1.48790717	          0.09779319	         -0.16472815	          1.25828552	          0.07225848	         -0.19427611	          1.32606006	          1.14285564	         -0.21271512	          1.40950918	          1.09699583	         -0.15109017	          1.40464759	          1.09656227	         -0.27993160	          1.40163183	          1.08511698	         -0.21783039	          1.42180073	          0.94273901	         -0.21737334	          1.49977863	          0.47954929	         -0.01460113	          1.47164953	          0.47181287	         -0.29086998	          1.50112736	          0.55224603	         -0.07993255	          1.41533899	          0.53811789	         -0.23283617	          1.54953420	          0.48495954	         -0.09580725	          1.39149392	          0.45364529	         -0.21775743	          1.48641872	          0.19344996	         -0.03351776	          1.36471272	          0.14270875	         -0.26633590	          1.50795019	          0.24534854	         -0.09322397	          1.31816626	          0.21154730	         -0.24657787	          1.57586205	          0.06458681	         -0.13119541	          1.35355163	          0.03641218	         -0.22316402	
          0.38333324	          1.44443464	          0.75502276	         -0.20626125	         -1.94996357	         -0.41954324	          3.50962639	         32.15007782	         -0.72910810	         -2.44901395	        -36.35387802	          3.38668370	          0.00000000	          0.00000000	         -5.76272821	          6.35531282	         -3.78422618	         -4.36205912	          7.52526855	          0.00000000	          0.00000000	        -13.90315819	         -0.03205232	         -1.75013280	          0.00000000	          0.00000000	          0.00000000	          1.81964685	          0.00000000	         -0.17566643	          4.61763535	        242.69546183	          2.45772385	          1.35636584	          0.00000000	         -0.22585611	          0.00000000	          0.00000000	          0.00000000	          0.00000000	         -1.20394165	          0.00000000	          1.38732445	          0.68428355	         -0.20323992	          1.38268995	          0.69102269	         -0.13993406	          1.37499273	          0.69198710	         -0.26552361	          1.54855645	          0.40569726	         -0.14808202	          1.33519983	          0.38268387	         -0.23065855	          1.51423442	          0.08663359	         -0.13953577	          1.26535547	          0.06348763	         -0.22233470	          1.44443464	          0.75502276	         -0.20626125	          1.45016766	          0.75430447	         -0.11272069	          1.43870151	          0.75574106	         -0.29980180	          1.30208218	          0.79198152	         -0.17184857	          1.29494309	          0.79066396	         -0.22666261	          1.54945850	          0.40478000	         -0.09759841	          1.32816052	          0.37803420	         -0.27994168	          1.55222702	          0.39903972	         -0.19466139	          1.33636606	          0.38611516	         -0.18144235	          1.50923765	          0.08805755	         -0.10644113	          1.25842953	          0.06412189	         -0.25612643	          1.51544023	          0.09353941	         -0.16570589	          1.25849652	          0.07270752	         -0.19379543	          1.33496368	          1.14178240	         -0.21255867	          1.41784585	          1.09541464	         -0.15072592	          1.41373014	          1.09528458	         -0.27962521	          1.41043115	          1.08381677	         -0.21751027	          1.42983615	          0.94124997	         -0.21729349	          1.50864899	          0.47770199	         -0.01539733	          1.47558665	          0.46947381	         -0.29180405	          1.50956166	          0.55054253	         -0.08062354	          1.42085397	          0.53640658	         -0.23314187	          1.55783892	          0.48319450	         -0.09679383	          1.39534569	          0.45217818	         -0.21814309	          1.50788641	          0.18927395	         -0.03453153	          1.36538029	          0.14250253	         -0.26605329	          1.52640891	          0.24216734	         -0.09415753	          1.31937099	          0.21155742	         -0.24622294	          1.60504019	          0.06565636	         -0.13241285	          1.35351372	          0.03646071	         -0.22318037	
